<svg id="Layer_1" data-name="Layer 1" xmlns="http://www.w3.org/2000/svg" viewBox="0 0 453.28 144"><defs><style>.cls-1{fill:#b2a268;}.cls-2{fill:#143156;}</style></defs><path class="cls-1" d="M152.31,105.63h0a2.38,2.38,0,1,0,2.34,2.38A2.36,2.36,0,0,0,152.3,105.63Zm0,4.39a2,2,0,0,1,0-4h0a2,2,0,0,1,0,4Z"/><path class="cls-1" d="M152.73,108.09v0a.66.66,0,0,0,.52-.64.62.62,0,0,0-.25-.55,1.34,1.34,0,0,0-.82-.2,5.06,5.06,0,0,0-.75.06v2.65h.43v-1.14h.29a.49.49,0,0,1,.57.46,1.81,1.81,0,0,0,.18.68h.44a2.54,2.54,0,0,1-.17-.66C153.12,108.34,153,108.13,152.73,108.09Zm-.57-.17h-.3V107a1.74,1.74,0,0,1,.3,0c.48,0,.64.24.64.47S152.51,107.92,152.16,107.92Z"/><path class="cls-1" d="M77.33,28.34h0Z"/><path class="cls-1" d="M88.28,54.25V74.93H99.37l1.17-6.2h5c-1.83,9.46-11.23,16-23.16,16-.82,0-1.65,0-2.47-.09a32.78,32.78,0,0,1-17.1-6C57.93,75,55.36,70,55.39,64.35a21.11,21.11,0,0,1,7.27-15.86,27.14,27.14,0,0,1,16.78-6.56c.4,0,.81,0,1.21,0A34.67,34.67,0,0,1,102,49.74l.45.35s.08.06.43.34l.17.15h12.73V28.33h-12.9v6.38a49.22,49.22,0,0,0-25.59-7h-.17A44.75,44.75,0,0,0,45.62,41c-6.71,6.83-10.35,15.19-10.25,23.53.12,9,4.44,17.31,12.17,23.51A44.5,44.5,0,0,0,75,97.34c1.24,0,2.51,0,3.75-.15,10-.81,18.82-3.09,25.07-6.44l0,2.76h13.71V68.74h4.73V97.46h-7.14v12.92H147V97.46h-7.14V68.73H156l1.13,6.2h11.14V54.25Zm-11-25.91h0Z"/><path class="cls-2" d="M211.43,47a3.55,3.55,0,0,1,1.26.66.25.25,0,0,1,.1.2v1.68a.12.12,0,0,1-.14.14h-1.26a.13.13,0,0,1-.14-.14v-.83a.16.16,0,0,0-.05-.11,2.41,2.41,0,0,0-.67-.28,3.5,3.5,0,0,0-.8-.1,2.25,2.25,0,0,0-1.31.33,1.92,1.92,0,0,0-.67.95,4.62,4.62,0,0,0-.17.8c0,.31-.05.77-.05,1.38s0,1.09,0,1.4a4,4,0,0,0,.14.76,1.76,1.76,0,0,0,.67.93,2.22,2.22,0,0,0,1.28.31,2.91,2.91,0,0,0,1.55-.33.37.37,0,0,0,.11-.1.23.23,0,0,0,0-.13V52.63c0-.06,0-.08-.08-.08h-1.52a.13.13,0,0,1-.14-.14V51.29a.12.12,0,0,1,.14-.14h3.06a.12.12,0,0,1,.14.14v4a.41.41,0,0,1,0,.19s-.07.09-.15.15a4.65,4.65,0,0,1-1.38.66,6.07,6.07,0,0,1-1.75.24,4.34,4.34,0,0,1-2.31-.55,2.92,2.92,0,0,1-1.23-1.68,4,4,0,0,1-.19-1c0-.36-.05-.92-.05-1.69s0-1.27.05-1.64a4.81,4.81,0,0,1,.21-1,3.11,3.11,0,0,1,1.29-1.72,4.3,4.3,0,0,1,2.37-.59A5.11,5.11,0,0,1,211.43,47Z"/><path class="cls-2" d="M219.33,50a2.53,2.53,0,0,1,1,1.36,4,4,0,0,1,.17.81,9.88,9.88,0,0,1,.05,1.22c0,.1-.05.14-.15.14h-4.16c-.06,0-.08,0-.08.09a1.57,1.57,0,0,0,.09.51,1.51,1.51,0,0,0,.56.76,1.67,1.67,0,0,0,1,.27,2,2,0,0,0,1.58-.65.15.15,0,0,1,.21,0l.82.73a.13.13,0,0,1,0,.2,3.25,3.25,0,0,1-1.16.84,4.16,4.16,0,0,1-1.61.31,3.15,3.15,0,0,1-1.8-.5,2.55,2.55,0,0,1-1-1.38,5.35,5.35,0,0,1-.24-1.65,5.48,5.48,0,0,1,.23-1.67,2.51,2.51,0,0,1,1-1.37,3.36,3.36,0,0,1,3.51,0ZM216.74,51a1.25,1.25,0,0,0-.49.64,1.71,1.71,0,0,0-.08.57c0,.06,0,.09.08.09h2.65s.08,0,.08-.09a2,2,0,0,0-.08-.57,1.31,1.31,0,0,0-.49-.64,1.63,1.63,0,0,0-1.67,0Z"/><path class="cls-2" d="M226.7,50a2.53,2.53,0,0,1,1,1.37,4.89,4.89,0,0,1,.16.74,6.12,6.12,0,0,1,.06.93,6,6,0,0,1-.06.92,4.64,4.64,0,0,1-.16.74,2.55,2.55,0,0,1-1,1.38,3.42,3.42,0,0,1-3.53,0,2.49,2.49,0,0,1-1-1.38,4.67,4.67,0,0,1-.17-.74,6,6,0,0,1-.06-.92,6.12,6.12,0,0,1,.06-.93,4.94,4.94,0,0,1,.17-.74,2.47,2.47,0,0,1,1-1.37,3.42,3.42,0,0,1,3.53,0Zm-2.56,1.14a1.25,1.25,0,0,0-.47.65,2.64,2.64,0,0,0-.11.53,8.65,8.65,0,0,0,0,1.44,2.18,2.18,0,0,0,.11.52,1.36,1.36,0,0,0,.48.66,1.34,1.34,0,0,0,.79.23,1.36,1.36,0,0,0,.79-.23,1.4,1.4,0,0,0,.47-.66,2.19,2.19,0,0,0,.12-.52c0-.18,0-.42,0-.72s0-.54,0-.72a2.68,2.68,0,0,0-.12-.53,1.24,1.24,0,0,0-.46-.65,1.35,1.35,0,0,0-.8-.23A1.4,1.4,0,0,0,224.14,51.11Z"/><path class="cls-2" d="M234,49.61c.09,0,.14.06.14.14V51a.14.14,0,0,1-.05.12s-.07,0-.12,0a6.06,6.06,0,0,0-.83-.11,1.44,1.44,0,0,0-1.13.42,1.94,1.94,0,0,0-.38,1.32v2.2a.07.07,0,0,0,.08.08h.66a.12.12,0,0,1,.14.14v1.09c0,.1,0,.14-.14.14h-3c-.1,0-.14,0-.14-.14V55.15a.12.12,0,0,1,.14-.14h.6a.07.07,0,0,0,.08-.08V51.09c0-.06,0-.08-.08-.08h-.6a.12.12,0,0,1-.14-.14v-1.1a.12.12,0,0,1,.14-.14h2.11a.13.13,0,0,1,.14.14v.7h0a1.89,1.89,0,0,1,1.7-.93A2.84,2.84,0,0,1,234,49.61Z"/><path class="cls-2" d="M239.39,50.28h0v-.51a.12.12,0,0,1,.14-.14h2.11a.13.13,0,0,1,.14.14v1.1a.13.13,0,0,1-.14.14h-.6c-.06,0-.09,0-.09.08V56a3.08,3.08,0,0,1-.8,2.28,3.14,3.14,0,0,1-2.35.82,3.56,3.56,0,0,1-1.39-.28,2.6,2.6,0,0,1-1.06-.73.18.18,0,0,1,0-.1s0-.06.06-.1l.82-.82a.31.31,0,0,1,.12-.06.14.14,0,0,1,.09.06,2.08,2.08,0,0,0,1.47.63c1,0,1.52-.54,1.52-1.61v-.63h0a1.92,1.92,0,0,1-1.75.78,2.4,2.4,0,0,1-1.44-.42,2.34,2.34,0,0,1-.85-1.22,3.45,3.45,0,0,1-.18-.77,8.39,8.39,0,0,1,0-.95,8.06,8.06,0,0,1,0-.94,3.72,3.72,0,0,1,.18-.77,2.32,2.32,0,0,1,.85-1.23,2.4,2.4,0,0,1,1.44-.42A1.91,1.91,0,0,1,239.39,50.28Zm-2.53,1.45a3.26,3.26,0,0,0-.16,1.11,3.1,3.1,0,0,0,.16,1.11,1.26,1.26,0,0,0,2.39,0,3.35,3.35,0,0,0,.16-1.11,3.52,3.52,0,0,0-.16-1.11,1.27,1.27,0,0,0-2.39,0Z"/><path class="cls-2" d="M245.31,49.77v5.16s0,.08.09.08h.6a.13.13,0,0,1,.14.14v1.09a.12.12,0,0,1-.14.14h-2.94a.12.12,0,0,1-.14-.14V55.15a.13.13,0,0,1,.14-.14h.6c.06,0,.09,0,.09-.08V51.09c0-.06,0-.08-.09-.08h-.6a.13.13,0,0,1-.14-.14v-1.1a.13.13,0,0,1,.14-.14h2.11A.12.12,0,0,1,245.31,49.77Zm0-2.77v1.22a.12.12,0,0,1-.14.14h-1.28a.12.12,0,0,1-.14-.14V47a.12.12,0,0,1,.14-.14h1.28A.12.12,0,0,1,245.31,47Z"/><path class="cls-2" d="M252.24,50a2.26,2.26,0,0,1,.63,1.8v3.1s0,.08.09.08h.6a.13.13,0,0,1,.14.14v1.09a.12.12,0,0,1-.14.14h-2c-.1,0-.14,0-.14-.14v-.49h0a1.62,1.62,0,0,1-.72.58,2.85,2.85,0,0,1-1.15.21,2.4,2.4,0,0,1-1.62-.54,2.18,2.18,0,0,1,.07-3.15,3.19,3.19,0,0,1,2-.54h1.35c.05,0,.08,0,.08-.09V52a1.19,1.19,0,0,0-.3-.9,1.64,1.64,0,0,0-1.09-.28,3,3,0,0,0-.72.09.08.08,0,0,0-.07.09v.61a.13.13,0,0,1-.14.14h-1.22a.12.12,0,0,1-.14-.14V50.14a.18.18,0,0,1,.11-.18,5.09,5.09,0,0,1,2.25-.48A3.33,3.33,0,0,1,252.24,50Zm-3.12,3.68a.78.78,0,0,0-.35.7.75.75,0,0,0,.3.64,1.44,1.44,0,0,0,.85.21c1,0,1.47-.38,1.47-1.15v-.54c0-.06,0-.09-.08-.09h-1.1A2.06,2.06,0,0,0,249.12,53.71Z"/><path class="cls-2" d="M265.56,47v2.24a.12.12,0,0,1-.14.14h-1.21a.12.12,0,0,1-.14-.14V48.4s0-.08-.08-.08h-1.43a.07.07,0,0,0-.08.08v6.53a.07.07,0,0,0,.08.08h.73a.13.13,0,0,1,.14.14v1.09a.12.12,0,0,1-.14.14H260a.12.12,0,0,1-.14-.14V55.15A.13.13,0,0,1,260,55h.73c.06,0,.09,0,.09-.08V48.4s0-.08-.09-.08h-1.43a.07.07,0,0,0-.08.08v.84a.12.12,0,0,1-.14.14h-1.2c-.1,0-.14,0-.14-.14V47a.12.12,0,0,1,.14-.14h7.53A.13.13,0,0,1,265.56,47Z"/><path class="cls-2" d="M270,50a2.58,2.58,0,0,1,1,1.36,4,4,0,0,1,.17.81c0,.29.05.7.05,1.22,0,.1-.05.14-.15.14h-4.16a.08.08,0,0,0-.09.09,1.59,1.59,0,0,0,.1.51,1.45,1.45,0,0,0,.56.76,1.64,1.64,0,0,0,1,.27,2.06,2.06,0,0,0,1.59-.65.15.15,0,0,1,.21,0l.82.73a.13.13,0,0,1,0,.2,3.2,3.2,0,0,1-1.17.84,4.09,4.09,0,0,1-1.61.31,3.15,3.15,0,0,1-1.8-.5,2.54,2.54,0,0,1-1-1.38,5.35,5.35,0,0,1-.24-1.65,5.48,5.48,0,0,1,.23-1.67,2.47,2.47,0,0,1,1-1.37,3,3,0,0,1,1.74-.49A3.1,3.1,0,0,1,270,50ZM267.38,51a1.2,1.2,0,0,0-.49.64,1.7,1.7,0,0,0-.09.57.08.08,0,0,0,.09.09h2.64a.08.08,0,0,0,.09-.09,1.7,1.7,0,0,0-.09-.57A1.2,1.2,0,0,0,269,51a1.46,1.46,0,0,0-.82-.23A1.51,1.51,0,0,0,267.38,51Z"/><path class="cls-2" d="M276.94,49.62a3.63,3.63,0,0,1,1,.39.2.2,0,0,1,.11.18v1.54a.12.12,0,0,1-.14.14h-1.19c-.1,0-.14,0-.14-.14v-.61a.11.11,0,0,0-.07-.1,1.47,1.47,0,0,0-.36-.1,2.74,2.74,0,0,0-.5,0,1.28,1.28,0,0,0-1.38.88,5.7,5.7,0,0,0,0,2.51,1.29,1.29,0,0,0,1.38.87,2.17,2.17,0,0,0,.86-.13s.07-.06.07-.1v-.63a.12.12,0,0,1,.14-.14H278a.13.13,0,0,1,.14.14v1.56A.2.2,0,0,1,278,56a5.06,5.06,0,0,1-2.33.52,3.37,3.37,0,0,1-1.84-.47,2.44,2.44,0,0,1-1-1.35,5.59,5.59,0,0,1-.21-1.71,5.44,5.44,0,0,1,.21-1.67A2.6,2.6,0,0,1,273.83,50a3.27,3.27,0,0,1,1.82-.48A5.86,5.86,0,0,1,276.94,49.62Z"/><path class="cls-2" d="M281.84,47v3.26h0a1.69,1.69,0,0,1,.69-.56,2.33,2.33,0,0,1,1.06-.22,2.16,2.16,0,0,1,1.69.7,2.57,2.57,0,0,1,.64,1.81v2.94A.07.07,0,0,0,286,55h.58a.13.13,0,0,1,.14.14v1.09a.12.12,0,0,1-.14.14h-2.92a.12.12,0,0,1-.14-.14V55.15a.13.13,0,0,1,.14-.14h.61a.07.07,0,0,0,.08-.08V52.35a1.68,1.68,0,0,0-.32-1.07,1.29,1.29,0,0,0-1.87,0,1.63,1.63,0,0,0-.33,1.07v2.58a.07.07,0,0,0,.08.08h.61a.13.13,0,0,1,.14.14v1.09a.12.12,0,0,1-.14.14h-2.94c-.1,0-.14,0-.14-.14V55.15a.12.12,0,0,1,.14-.14h.6a.07.07,0,0,0,.08-.08V48.32c0-.06,0-.09-.08-.09h-.6c-.1,0-.14,0-.14-.14V47a.12.12,0,0,1,.14-.14h2.11A.13.13,0,0,1,281.84,47Z"/><path class="cls-2" d="M298,47.44a.21.21,0,0,1,.11.19v1.89a.12.12,0,0,1-.14.14h-1.26c-.1,0-.14,0-.14-.14v-1a.13.13,0,0,0-.07-.12,2.84,2.84,0,0,0-.56-.18,3.7,3.7,0,0,0-.66-.07,2.23,2.23,0,0,0-1.29.32,1.79,1.79,0,0,0-.66.94,4.79,4.79,0,0,0-.14.75c0,.29,0,.76,0,1.42s0,1.16,0,1.44a2.89,2.89,0,0,0,.13.73,1.86,1.86,0,0,0,.65,1,2.24,2.24,0,0,0,1.31.31,3,3,0,0,0,1.22-.22.15.15,0,0,0,.07-.11v-1c0-.1,0-.14.14-.14H298a.12.12,0,0,1,.14.14v1.9a.23.23,0,0,1-.11.2,5.45,5.45,0,0,1-2.88.73,3.17,3.17,0,0,1-3.42-2.24,3.8,3.8,0,0,1-.19-1c0-.35,0-.92,0-1.72s0-1.31,0-1.65a4.47,4.47,0,0,1,.19-.94A3.13,3.13,0,0,1,293,47.3a3.76,3.76,0,0,1,2.18-.59A5.08,5.08,0,0,1,298,47.44Z"/><path class="cls-2" d="M304.33,50a2.53,2.53,0,0,1,1,1.37,4.89,4.89,0,0,1,.16.74,6.12,6.12,0,0,1,.06.93,6,6,0,0,1-.06.92,4.64,4.64,0,0,1-.16.74,2.55,2.55,0,0,1-1,1.38,3.42,3.42,0,0,1-3.53,0,2.49,2.49,0,0,1-1-1.38,4.67,4.67,0,0,1-.17-.74,6,6,0,0,1-.06-.92,6.12,6.12,0,0,1,.06-.93,4.94,4.94,0,0,1,.17-.74,2.47,2.47,0,0,1,1-1.37,3.42,3.42,0,0,1,3.53,0Zm-2.56,1.14a1.25,1.25,0,0,0-.47.65,2.64,2.64,0,0,0-.11.53,8.66,8.66,0,0,0,0,1.44,2.18,2.18,0,0,0,.11.52,1.36,1.36,0,0,0,.48.66,1.34,1.34,0,0,0,.79.23,1.36,1.36,0,0,0,.79-.23,1.4,1.4,0,0,0,.47-.66,2.19,2.19,0,0,0,.12-.52c0-.18,0-.42,0-.72s0-.54,0-.72a2.68,2.68,0,0,0-.12-.53,1.24,1.24,0,0,0-.46-.65,1.35,1.35,0,0,0-.8-.23A1.4,1.4,0,0,0,301.77,51.11Z"/><path class="cls-2" d="M309,47v7.39a.63.63,0,0,0,.14.48.62.62,0,0,0,.45.14h.3a.12.12,0,0,1,.14.14v1.13c0,.1,0,.14-.14.14h-.61a1.79,1.79,0,0,1-1.41-.49,2.16,2.16,0,0,1-.44-1.48V48.32c0-.06,0-.09-.08-.09h-.61a.12.12,0,0,1-.14-.14V47a.13.13,0,0,1,.14-.14h2.12A.13.13,0,0,1,309,47Z"/><path class="cls-2" d="M313.21,47v7.39a.67.67,0,0,0,.14.48.65.65,0,0,0,.45.14h.31a.13.13,0,0,1,.14.14v1.13a.12.12,0,0,1-.14.14h-.62a1.78,1.78,0,0,1-1.4-.49,2.11,2.11,0,0,1-.44-1.48V48.32a.08.08,0,0,0-.09-.09H311a.12.12,0,0,1-.14-.14V47a.13.13,0,0,1,.14-.14h2.11A.12.12,0,0,1,313.21,47Z"/><path class="cls-2" d="M320.1,50a2.53,2.53,0,0,1,1,1.36,4,4,0,0,1,.17.81,9.88,9.88,0,0,1,.05,1.22c0,.1-.05.14-.15.14H317c-.06,0-.08,0-.08.09a1.36,1.36,0,0,0,.1.51,1.44,1.44,0,0,0,.55.76,1.67,1.67,0,0,0,1,.27,2,2,0,0,0,1.58-.65.15.15,0,0,1,.21,0l.83.73a.13.13,0,0,1,0,.2,3.25,3.25,0,0,1-1.16.84,4.16,4.16,0,0,1-1.61.31,3.15,3.15,0,0,1-1.8-.5,2.55,2.55,0,0,1-1-1.38,5.35,5.35,0,0,1-.23-1.65,5.5,5.5,0,0,1,.22-1.67,2.51,2.51,0,0,1,1-1.37,3.36,3.36,0,0,1,3.51,0ZM317.51,51a1.25,1.25,0,0,0-.49.64,1.71,1.71,0,0,0-.08.57c0,.06,0,.09.08.09h2.65c.05,0,.08,0,.08-.09a2,2,0,0,0-.08-.57,1.31,1.31,0,0,0-.49-.64,1.63,1.63,0,0,0-1.67,0Z"/><path class="cls-2" d="M327,50.28h0v-.51a.13.13,0,0,1,.14-.14h2.12a.13.13,0,0,1,.14.14v1.1a.13.13,0,0,1-.14.14h-.6c-.06,0-.09,0-.09.08V56a2.83,2.83,0,0,1-3.15,3.1,3.56,3.56,0,0,1-1.39-.28,2.54,2.54,0,0,1-1.06-.73.13.13,0,0,1,0-.1s0-.06.06-.1l.82-.82c.06,0,.09-.06.11-.06s.06,0,.1.06a2.08,2.08,0,0,0,1.47.63c1,0,1.51-.54,1.51-1.61v-.63h0a1.93,1.93,0,0,1-1.75.78,2.27,2.27,0,0,1-2.3-1.64,4.08,4.08,0,0,1-.17-.77,8.39,8.39,0,0,1,0-.95,8.06,8.06,0,0,1,0-.94,4.45,4.45,0,0,1,.17-.77,2.26,2.26,0,0,1,2.3-1.65A1.92,1.92,0,0,1,327,50.28Zm-2.53,1.45a3.26,3.26,0,0,0-.16,1.11,3.1,3.1,0,0,0,.16,1.11,1.14,1.14,0,0,0,1.19.86,1.16,1.16,0,0,0,1.2-.86,3.38,3.38,0,0,0,.15-1.11,3.55,3.55,0,0,0-.15-1.11,1.16,1.16,0,0,0-1.2-.85A1.14,1.14,0,0,0,324.46,51.73Z"/><path class="cls-2" d="M335.39,50a2.58,2.58,0,0,1,1,1.36,4,4,0,0,1,.17.81c0,.29.05.7.05,1.22,0,.1-.05.14-.15.14h-4.16c-.06,0-.08,0-.08.09a1.57,1.57,0,0,0,.09.51,1.51,1.51,0,0,0,.56.76,1.64,1.64,0,0,0,.95.27,2,2,0,0,0,1.59-.65.15.15,0,0,1,.21,0l.82.73a.13.13,0,0,1,0,.2,3.2,3.2,0,0,1-1.17.84,4.08,4.08,0,0,1-1.6.31,3.15,3.15,0,0,1-1.8-.5,2.55,2.55,0,0,1-1-1.38,5.35,5.35,0,0,1-.24-1.65,5.48,5.48,0,0,1,.23-1.67,2.47,2.47,0,0,1,1-1.37,3,3,0,0,1,1.74-.49A3.07,3.07,0,0,1,335.39,50ZM332.8,51a1.25,1.25,0,0,0-.49.64,1.71,1.71,0,0,0-.08.57c0,.06,0,.09.08.09H335c.05,0,.08,0,.08-.09a2,2,0,0,0-.08-.57,1.27,1.27,0,0,0-.5-.64,1.46,1.46,0,0,0-.82-.23A1.51,1.51,0,0,0,332.8,51Z"/><path class="cls-2" d="M346.2,50a2.53,2.53,0,0,1,1,1.37,6.58,6.58,0,0,1,.17.74,8,8,0,0,1,.05.93,7.82,7.82,0,0,1-.05.92,6.11,6.11,0,0,1-.17.74,2.55,2.55,0,0,1-1,1.38,3.13,3.13,0,0,1-1.75.49,3.17,3.17,0,0,1-1.77-.49,2.55,2.55,0,0,1-1-1.38,6.11,6.11,0,0,1-.17-.74,7.82,7.82,0,0,1-.05-.92,8,8,0,0,1,.05-.93,6.58,6.58,0,0,1,.17-.74,2.53,2.53,0,0,1,1-1.37,3.09,3.09,0,0,1,1.77-.49A3,3,0,0,1,346.2,50Zm-2.56,1.14a1.31,1.31,0,0,0-.47.65,3.58,3.58,0,0,0-.11.53,8.65,8.65,0,0,0,0,1.44,2.82,2.82,0,0,0,.11.52,1.42,1.42,0,0,0,.48.66,1.35,1.35,0,0,0,.8.23,1.33,1.33,0,0,0,.78-.23,1.42,1.42,0,0,0,.48-.66,2.82,2.82,0,0,0,.11-.52,8.66,8.66,0,0,0,0-1.44,3.58,3.58,0,0,0-.11-.53,1.31,1.31,0,0,0-.47-.65,1.34,1.34,0,0,0-.79-.23A1.41,1.41,0,0,0,343.64,51.11Z"/><path class="cls-2" d="M352.51,47v1.12a.12.12,0,0,1-.14.14h-.43a1.08,1.08,0,0,0-.69.16,1,1,0,0,0-.17.67v.46c0,.06,0,.08.09.08h1.2a.13.13,0,0,1,.14.14v1.1a.13.13,0,0,1-.14.14h-1.2c-.06,0-.09,0-.09.08v3.84s0,.08.09.08h.74a.13.13,0,0,1,.14.14v1.09a.12.12,0,0,1-.14.14h-3.08a.12.12,0,0,1-.14-.14V55.15a.13.13,0,0,1,.14-.14h.6c.06,0,.08,0,.08-.08V51.09c0-.06,0-.08-.08-.08H349a.13.13,0,0,1-.14-.14v-1.1a.13.13,0,0,1,.14-.14h.45c.06,0,.08,0,.08-.08v-.43a2,2,0,0,1,2.24-2.26h.62A.13.13,0,0,1,352.51,47Z"/><path class="cls-2" d="M363.34,47.4A2.88,2.88,0,0,1,364.48,49a5.12,5.12,0,0,1,.18.93q.06.56.06,1.71t-.06,1.71a5.24,5.24,0,0,1-.18.94,2.85,2.85,0,0,1-1.14,1.57,3.6,3.6,0,0,1-2,.54h-4.21c-.1,0-.14,0-.14-.14V55.15a.12.12,0,0,1,.14-.14h.67c.06,0,.08,0,.08-.08V48.32c0-.06,0-.09-.08-.09h-.67c-.1,0-.14,0-.14-.14V47a.12.12,0,0,1,.14-.14h4.21A3.6,3.6,0,0,1,363.34,47.4Zm-3.84,1v6.38c0,.06,0,.09.08.09h1.33a2.5,2.5,0,0,0,1.28-.29,1.61,1.61,0,0,0,.69-.92A2.53,2.53,0,0,0,363,53c0-.3,0-.76,0-1.4s0-1.11,0-1.4a2.62,2.62,0,0,0-.13-.67,1.61,1.61,0,0,0-.69-.92,2.5,2.5,0,0,0-1.28-.28h-1.33C359.52,48.35,359.5,48.37,359.5,48.43Z"/><path class="cls-2" d="M371,50a2.58,2.58,0,0,1,1,1.36,4,4,0,0,1,.17.81,9.88,9.88,0,0,1,.05,1.22c0,.1-.05.14-.15.14h-4.16c-.06,0-.08,0-.08.09a1.57,1.57,0,0,0,.09.51,1.51,1.51,0,0,0,.56.76,1.67,1.67,0,0,0,1,.27,2,2,0,0,0,1.58-.65.15.15,0,0,1,.21,0l.82.73a.13.13,0,0,1,0,.2,3.25,3.25,0,0,1-1.16.84,4.16,4.16,0,0,1-1.61.31,3.15,3.15,0,0,1-1.8-.5,2.55,2.55,0,0,1-1-1.38,5.35,5.35,0,0,1-.24-1.65,5.48,5.48,0,0,1,.23-1.67,2.47,2.47,0,0,1,1-1.37A3.36,3.36,0,0,1,371,50ZM368.4,51a1.25,1.25,0,0,0-.49.64,1.71,1.71,0,0,0-.08.57c0,.06,0,.09.08.09h2.65c.05,0,.08,0,.08-.09a2,2,0,0,0-.08-.57,1.31,1.31,0,0,0-.49-.64,1.63,1.63,0,0,0-1.67,0Z"/><path class="cls-2" d="M378.61,50a.19.19,0,0,1,.11.19v1.4a.12.12,0,0,1-.14.14h-1.14a.12.12,0,0,1-.14-.14V51a.11.11,0,0,0-.07-.11,2.07,2.07,0,0,0-.42-.11,3.69,3.69,0,0,0-.58,0,1.62,1.62,0,0,0-.86.18.6.6,0,0,0,0,1,2,2,0,0,0,.89.25l.74.08a2.68,2.68,0,0,1,1.64.64,1.91,1.91,0,0,1,.5,1.39,2,2,0,0,1-.75,1.64,3.44,3.44,0,0,1-2.15.59,5.63,5.63,0,0,1-2.52-.54.18.18,0,0,1-.1-.16V54.32a.13.13,0,0,1,.14-.14h1.19a.12.12,0,0,1,.14.14v.62a.11.11,0,0,0,.07.1,3.37,3.37,0,0,0,1.18.18q1.26,0,1.26-.78a.63.63,0,0,0-.25-.54,2.08,2.08,0,0,0-.91-.25l-.74-.08a2.72,2.72,0,0,1-1.59-.63,1.88,1.88,0,0,1-.5-1.37,1.86,1.86,0,0,1,.69-1.53,3.08,3.08,0,0,1,2-.56A5.64,5.64,0,0,1,378.61,50Z"/><path class="cls-2" d="M382.69,49.77v5.16s0,.08.09.08h.6a.13.13,0,0,1,.14.14v1.09a.12.12,0,0,1-.14.14h-2.94a.12.12,0,0,1-.14-.14V55.15a.13.13,0,0,1,.14-.14h.6c.06,0,.08,0,.08-.08V51.09c0-.06,0-.08-.08-.08h-.6a.13.13,0,0,1-.14-.14v-1.1a.13.13,0,0,1,.14-.14h2.11A.12.12,0,0,1,382.69,49.77Zm0-2.77v1.22a.12.12,0,0,1-.14.14h-1.28c-.1,0-.15,0-.15-.14V47c0-.09.05-.14.15-.14h1.28A.12.12,0,0,1,382.69,47Z"/><path class="cls-2" d="M389,50.28h0v-.51a.12.12,0,0,1,.14-.14h2.11a.13.13,0,0,1,.14.14v1.1a.13.13,0,0,1-.14.14h-.6c-.06,0-.08,0-.08.08V56a3.08,3.08,0,0,1-.81,2.28,3.13,3.13,0,0,1-2.34.82,3.61,3.61,0,0,1-1.4-.28,2.5,2.5,0,0,1-1-.73.14.14,0,0,1-.05-.1s0-.06.06-.1l.83-.82a.24.24,0,0,1,.11-.06s.06,0,.1.06a2,2,0,0,0,1.47.63c1,0,1.51-.54,1.51-1.61v-.63h0a1.92,1.92,0,0,1-1.75.78,2.4,2.4,0,0,1-1.44-.42,2.34,2.34,0,0,1-.85-1.22,3.45,3.45,0,0,1-.18-.77,8.39,8.39,0,0,1,0-.95,8.06,8.06,0,0,1,0-.94,3.72,3.72,0,0,1,.18-.77,2.32,2.32,0,0,1,.85-1.23,2.4,2.4,0,0,1,1.44-.42A1.91,1.91,0,0,1,389,50.28Zm-2.53,1.45a3.55,3.55,0,0,0-.15,1.11,3.38,3.38,0,0,0,.15,1.11,1.26,1.26,0,0,0,2.39,0,3.1,3.1,0,0,0,.16-1.11,3.26,3.26,0,0,0-.16-1.11,1.27,1.27,0,0,0-2.39,0Z"/><path class="cls-2" d="M398.37,50.18A2.61,2.61,0,0,1,399,52v2.94s0,.08.09.08h.57a.13.13,0,0,1,.14.14v1.09a.12.12,0,0,1-.14.14h-2.91a.12.12,0,0,1-.14-.14V55.15a.13.13,0,0,1,.14-.14h.6c.06,0,.09,0,.09-.08V52.35a1.63,1.63,0,0,0-.33-1.07,1.1,1.1,0,0,0-.93-.4,1.14,1.14,0,0,0-.94.4,1.68,1.68,0,0,0-.32,1.07v2.58s0,.08.08.08h.6a.13.13,0,0,1,.14.14v1.09a.12.12,0,0,1-.14.14h-2.94a.12.12,0,0,1-.14-.14V55.15a.13.13,0,0,1,.14-.14h.6c.06,0,.09,0,.09-.08V51.09c0-.06,0-.08-.09-.08h-.6a.13.13,0,0,1-.14-.14v-1.1a.13.13,0,0,1,.14-.14h2.12a.13.13,0,0,1,.14.14v.49h0a1.66,1.66,0,0,1,.68-.56,2.28,2.28,0,0,1,1.06-.22A2.18,2.18,0,0,1,398.37,50.18Z"/><path class="cls-2" d="M217.29,71.74a4.51,4.51,0,0,0-4.18-2.1c-2,0-3.16.89-3.16,2.52,0,1.85,1.46,2.57,4.14,3.16,3.9.84,5.91,2.3,5.91,5.77,0,2.88-1.93,5.54-6.58,5.54-3.3,0-5.63-1-7.22-3.16l2.55-1.76a5.16,5.16,0,0,0,4.5,2.1c2.67,0,3.5-1.18,3.5-2.58s-.86-2.49-4.22-3.22c-3.73-.78-5.83-2.58-5.83-5.85,0-2.91,1.91-5.35,6.44-5.35,3.08,0,5.24,1,6.61,3.16Z"/><path class="cls-2" d="M233.81,84.25c-.93,1.66-2.58,2.38-5,2.38-3.92,0-6.16-2.52-6.16-6.32V78.4c0-4,2.27-6.27,6.27-6.27a5.59,5.59,0,0,1,4.88,2.27L231.51,76a3.1,3.1,0,0,0-2.63-1.26c-2.19,0-3.25,1.4-3.25,3.81v1.63c0,2.18.78,3.89,3.25,3.89a2.83,2.83,0,0,0,2.66-1.37Z"/><path class="cls-2" d="M236.21,67.06h3v6.53a3.82,3.82,0,0,1,3.42-1.46c2.88,0,5.09,1.46,5.09,5.49v8.76h-3V78c0-2.46-1.12-3.16-2.66-3.16-1.84,0-2.88,1.26-2.88,3.14v8.45h-3Z"/><path class="cls-2" d="M262.76,80.25c0,3.72-1.82,6.38-5.94,6.38-3.92,0-6-2.52-6-6.38V78.49c0-4.12,2.18-6.36,6-6.36s5.94,2.24,5.94,6.36Zm-3-.08V78.54c0-2.43-1-3.81-3-3.81s-3,1.4-3,3.81v1.63c0,2.18.72,3.89,3,3.89S259.79,82.35,259.79,80.17Z"/><path class="cls-2" d="M277.18,80.25c0,3.72-1.82,6.38-5.94,6.38-3.92,0-6-2.52-6-6.38V78.49c0-4.12,2.18-6.36,6-6.36s5.94,2.24,5.94,6.36Zm-3-.08V78.54c0-2.43-1-3.81-3-3.81s-3,1.4-3,3.81v1.63c0,2.18.72,3.89,3,3.89S274.21,82.35,274.21,80.17Z"/><path class="cls-2" d="M280.29,67.06h3V81.29c0,1.51.28,2.46,2.13,2.46v2.63c-3.64,0-5.12-1.17-5.12-4.39Z"/><path class="cls-2" d="M307.5,80.25c0,3.72-1.82,6.38-5.93,6.38-3.92,0-6-2.52-6-6.38V78.49c0-4.12,2.19-6.36,6-6.36s5.93,2.24,5.93,6.36Zm-3-.08V78.54c0-2.43-1-3.81-3-3.81s-3,1.4-3,3.81v1.63c0,2.18.73,3.89,3,3.89S304.53,82.35,304.53,80.17Z"/><path class="cls-2" d="M311.28,72.38v-.87c0-3.3,1.21-4.45,4.57-4.45h.86v2.69h-.64c-1.57,0-1.82.7-1.82,2.32v.31h2.46V75h-2.46V86.38h-3V75h-1.79V72.38Z"/><path class="cls-2" d="M336,78.26l5.58-11.2h3.1V86.38h-3.13V73.45l-4.43,9.21h-2.29l-4.34-9.13V86.38h-3.14V67.06h3.08Z"/><path class="cls-2" d="M360.45,86.38h-2.94V85.12c-.64,1-1.48,1.51-3.44,1.51-2.89,0-5.13-1.48-5.13-5.51V72.38h3v8.43c0,2.49,1.12,3.19,2.69,3.19,1.84,0,2.85-1.23,2.85-3.16V72.38h3Z"/><path class="cls-2" d="M371.93,76.05c-.67-.87-1.37-1.26-3.05-1.26-1.26,0-2.19.42-2.19,1.43,0,1.17,1,1.54,2.66,1.73,3.11.37,5.13,1.46,5.13,4.43,0,2.57-1.77,4.25-5.38,4.25-2.85,0-4.48-.78-5.63-2.32l2.27-1.62c.65.86,1.49,1.31,3.33,1.31,1.54,0,2.44-.56,2.44-1.54,0-1.15-.73-1.48-2.91-1.76-2.66-.34-4.9-1.46-4.9-4.4,0-2.49,1.82-4.17,5.23-4.17,2.3,0,4.12.59,5.21,2.32Z"/><path class="cls-2" d="M378,67.06h3.27v3H378Zm.14,5.32h3v14h-3Z"/><path class="cls-2" d="M395.79,84.25c-.93,1.66-2.58,2.38-5,2.38-3.92,0-6.16-2.52-6.16-6.32V78.4c0-4,2.27-6.27,6.27-6.27a5.59,5.59,0,0,1,4.88,2.27L393.49,76a3.1,3.1,0,0,0-2.63-1.26c-2.19,0-3.25,1.4-3.25,3.81v1.63c0,2.18.78,3.89,3.25,3.89a2.83,2.83,0,0,0,2.66-1.37Z"/><rect class="cls-1" x="187.3" y="28.15" width="1.5" height="82.23" transform="translate(-0.1 0.27) rotate(-0.08)"/></svg>